# Alias OBJ Model File
# Exported from SketchUp, (c) 2000-2006 Google, Inc.
# File units = meters

mtllib gear.mtl

g Mesh1 Model

usemtl Color_E01
v 0.258819 -0.965926 -0
vt 10.1897 -38.0286
vn 0 0 1
v -0.15 -1.3 -0
vt -5.90551 -51.1811
v 0.15 -1.3 -0
vt 5.90551 -51.1811
f 1/1/1 2/2/1 3/3/1

v -0.258819 -0.965926 -0
vt -10.1897 -38.0286
f 2/2/1 1/1/1 4/4/1

v -0.5 -0.866025 -0
vt -19.685 -34.0955
f 4/4/1 1/1/1 5/5/1

v 0.5 -0.866025 -0
vt 19.685 -34.0955
f 5/5/1 1/1/1 6/6/1

vt 0 5.13883
vn 0.382683 -0.92388 -0
vt 0 -5.13883
v 0.258819 -0.965926 -1
vt 39.3701 -5.13883
v 0.5 -0.866025 -1
vt 39.3701 5.13883
f 6/7/2 1/8/2 7/9/2 8/10/2 

vt 0 -33.0027
vn 0.950829 -0.309717 -0
vt 0 -46.8354
v 0.15 -1.3 -1
vt 39.3701 -46.8354
vt 39.3701 -33.0027
f 1/11/3 3/12/3 9/13/3 7/14/3 

vt -5.90551 0
vn -4.81274e-015 -1 -0
vt 5.90551 0
v -0.15 -1.3 -1
vt 5.90551 39.3701
vt -5.90551 39.3701
f 3/15/4 2/16/4 10/17/4 9/18/4 

vt 0 -46.8354
vn -0.950829 -0.309717 -0
vt 0 -33.0027
v -0.258819 -0.965926 -1
vt -39.3701 -33.0027
vt -39.3701 -46.8354
f 2/19/5 4/20/5 11/21/5 10/22/5 

vt 0 -5.13883
vn -0.382683 -0.92388 -0
v -0.5 -0.866025 -1
vt -39.3701 5.13883
vt -39.3701 -5.13883
f 4/23/6 5/7/6 12/24/6 11/25/6 

vt 0 -33.0027
vn 0.453335 -0.89134 -0
v -0.813173 -1.0253 -0
vt 0 -46.8354
v -0.813173 -1.0253 -1
vt 39.3701 -46.8354
vt 39.3701 -33.0027
f 5/26/7 13/27/7 14/28/7 12/29/7 

v -1.0253 -0.813173 -0
vt -40.3663 -32.0147
vt -32.0147 -40.3663
f 5/5/1 15/30/1 13/31/1

f 15/30/1 5/5/1 6/6/1

v 1.0253 -0.813173 -0
vt 40.3663 -32.0147
f 6/6/1 16/32/1 15/30/1

v 0.813173 -1.0253 -0
vt 32.0147 -40.3663
f 16/32/1 6/6/1 17/33/1

vn -0.453335 -0.89134 -0
v 0.813173 -1.0253 -1
f 17/19/8 6/20/8 8/21/8 18/22/8 

vt -19.685 -34.0955
vn 0 0 -1
v 1.0253 -0.813173 -1
vt -40.3663 -32.0147
vt -32.0147 -40.3663
f 8/34/9 19/35/9 18/36/9

v -1.0253 -0.813173 -1
vt 40.3663 -32.0147
f 19/35/9 8/34/9 20/37/9

vt 19.685 -34.0955
f 12/38/9 20/37/9 8/34/9

vt 32.0147 -40.3663
f 20/37/9 12/38/9 14/39/9

vt 0 -5.90551
vn -0.707107 -0.707107 -0
vt 0 5.90551
vt -39.3701 5.90551
vt -39.3701 -5.90551
f 13/40/10 15/41/10 20/42/10 14/43/10 

vt 0 -46.8354
vn -0.89134 0.453335 -0
v -0.866025 -0.5 -0
vt 0 -33.0027
v -0.866025 -0.5 -1
vt -39.3701 -33.0027
vt -39.3701 -46.8354
f 15/44/11 21/45/11 22/46/11 20/47/11 

vt -34.0955 -19.685
f 15/30/1 16/32/1 21/48/1

v 0.866025 -0.5 -0
vt 34.0955 -19.685
f 21/48/1 16/32/1 23/49/1

vt 0 -33.0027
vn 0.89134 0.453335 -0
v 0.866025 -0.5 -1
vt 39.3701 -33.0027
f 23/50/12 16/27/12 19/28/12 24/51/12 

vt 0 5.90551
vn 0.707107 -0.707107 -0
vt 0 -5.90551
vt 39.3701 -5.90551
vt 39.3701 5.90551
f 16/52/13 17/53/13 18/54/13 19/55/13 

vt 34.0955 -19.685
vt -34.0955 -19.685
f 19/35/9 22/56/9 24/57/9

f 19/35/9 20/37/9 22/56/9

v 1.12799e-016 -0.394823 -1
vt -4.44089e-015 -15.5442
f 24/57/9 22/56/9 25/58/9

v -0.102188 -0.381369 -1
vt 4.02313 -15.0145
f 25/58/9 22/56/9 26/59/9

v -0.965926 -0.258819 -1
vt 38.0286 -10.1897
f 26/59/9 22/56/9 27/60/9

vn -0.92388 -0.382683 -0
v -0.965926 -0.258819 -0
vt 0 5.13883
vt -39.3701 5.13883
vt -39.3701 -5.13883
f 21/23/14 28/61/14 27/62/14 22/63/14 

v -0.102188 -0.381369 -0
vt -4.02313 -15.0145
vt -38.0286 -10.1897
f 21/48/1 29/64/1 28/65/1

v 1.12799e-016 -0.394823 -0
vt 4.44089e-015 -15.5442
f 21/48/1 30/66/1 29/64/1

f 21/48/1 23/49/1 30/66/1

v 0.102188 -0.381369 -0
vt 4.02313 -15.0145
f 23/49/1 31/67/1 30/66/1

v 0.965926 -0.258819 -0
vt 38.0286 -10.1897
f 31/67/1 23/49/1 32/68/1

vt 0 5.13883
vn 0.92388 -0.382683 -0
vt 0 -5.13883
vt 39.3701 -5.13883
v 0.965926 -0.258819 -1
vt 39.3701 5.13883
f 32/69/15 23/70/15 24/71/15 33/72/15 

v 0.102188 -0.381369 -1
vt -4.02313 -15.0145
vt -38.0286 -10.1897
f 24/57/9 34/73/9 33/74/9

f 34/73/9 24/57/9 25/58/9

vt 0 -2.02892
vn 2.23961e-016 1 -0
vt 0 2.02892
vn -0.258819 0.965926 -0
vt -39.3701 2.02892
vt -39.3701 -2.02892
f 30/75/16 31/76/17 34/77/17 25/78/16 

vt 0 -2.02892
v 0.197411 -0.341926 -0
vt 0 2.02892
vn -0.5 0.866025 -0
v 0.197411 -0.341926 -1
vt -39.3701 2.02892
vt -39.3701 -2.02892
f 31/79/17 35/80/18 36/81/18 34/82/17 

vt 7.7721 -13.4617
f 31/67/1 32/68/1 35/83/1

v 0.279182 -0.279182 -0
vt 10.9914 -10.9914
f 35/83/1 32/68/1 37/84/1

v 0.341926 -0.197411 -0
vt 13.4617 -7.7721
f 37/84/1 32/68/1 38/85/1

v 1.3 -0.15 -0
vt 51.1811 -5.90551
f 38/85/1 32/68/1 39/86/1

vt 0 46.8354
vn 0.309717 -0.950829 -0
vt 0 33.0027
vt 39.3701 33.0027
v 1.3 -0.15 -1
vt 39.3701 46.8354
f 39/87/19 32/88/19 33/89/19 40/90/19 

v 0.341926 -0.197411 -1
vt -13.4617 -7.7721
vt -51.1811 -5.90551
f 33/74/9 41/91/9 40/92/9

v 0.279182 -0.279182 -1
vt -10.9914 -10.9914
f 33/74/9 42/93/9 41/91/9

vt -7.7721 -13.4617
f 33/74/9 36/94/9 42/93/9

f 33/74/9 34/73/9 36/94/9

vt 0 -2.02892
vt 0 2.02892
vn -0.707107 0.707107 -0
vt -39.3701 2.02892
vt -39.3701 -2.02892
f 35/95/18 37/96/20 42/97/20 36/98/18 

vt 0 -2.02892
vt 0 2.02892
vn -0.866025 0.5 -0
vt -39.3701 2.02892
vt -39.3701 -2.02892
f 37/99/20 38/100/21 41/101/21 42/102/20 

vt 0 -2.02892
v 0.381369 -0.102188 -0
vn -0.965926 0.258819 -0
v 0.381369 -0.102188 -1
vt -39.3701 -2.02892
f 38/103/21 43/96/22 44/97/22 41/104/21 

vt 15.0145 -4.02313
f 38/85/1 39/86/1 43/105/1

v 1.3 0.15 -0
vt 51.1811 5.90551
f 43/105/1 39/86/1 45/106/1

vt 0 5.90551
vn 1 0 -0
vt 0 -5.90551
vt 39.3701 -5.90551
v 1.3 0.15 -1
vt 39.3701 5.90551
f 45/107/23 39/108/23 40/109/23 46/110/23 

vt -15.0145 -4.02313
vt -51.1811 5.90551
f 40/92/9 44/111/9 46/112/9

f 40/92/9 41/91/9 44/111/9

v 0.394823 -2.93277e-016 -1
vt -15.5442 -1.15463e-014
f 46/112/9 44/111/9 47/113/9

vt 0 -2.02892
v 0.394823 -2.93277e-016 -0
vt 0 2.02892
vn -1 5.03911e-016 -0
vt -39.3701 2.02892
vt -39.3701 -2.02892
f 43/114/22 48/115/24 47/116/24 44/117/22 

vt 15.5442 -1.15463e-014
f 43/105/1 45/106/1 48/118/1

v 0.381369 0.102188 -0
vt 15.0145 4.02313
f 48/118/1 45/106/1 49/119/1

v 0.341926 0.197411 -0
vt 13.4617 7.7721
f 49/119/1 45/106/1 50/120/1

v 0.965926 0.258819 -0
vt 38.0286 10.1897
f 50/120/1 45/106/1 51/121/1

vt 0 -33.0027
vn 0.309717 0.950829 -0
vt 0 -46.8354
vt 39.3701 -46.8354
v 0.965926 0.258819 -1
vt 39.3701 -33.0027
f 51/122/25 45/123/25 46/124/25 52/125/25 

v 0.341926 0.197411 -1
vt -13.4617 7.7721
vt -38.0286 10.1897
f 46/112/9 53/126/9 52/127/9

v 0.381369 0.102188 -1
vt -15.0145 4.02313
f 46/112/9 54/128/9 53/126/9

f 46/112/9 47/113/9 54/128/9

vt 0 -2.02892
vn -0.965926 -0.258819 -0
vt -39.3701 -2.02892
f 48/129/24 49/96/26 54/97/26 47/130/24 

vt 0 -2.02892
vt 0 2.02892
vn -0.866025 -0.5 -0
vt -39.3701 2.02892
vt -39.3701 -2.02892
f 49/131/26 50/132/27 53/133/27 54/134/26 

vt 0 -2.02892
v 0.279182 0.279182 -0
vt 0 2.02892
vn -0.707107 -0.707107 -0
v 0.279182 0.279182 -1
vt -39.3701 2.02892
vt -39.3701 -2.02892
f 50/135/27 55/136/28 56/137/28 53/138/27 

vt 10.9914 10.9914
f 50/120/1 51/121/1 55/139/1

v 0.866025 0.5 -0
vt 34.0955 19.685
f 55/139/1 51/121/1 57/140/1

vt 0 5.13883
vn 0.92388 0.382683 -0
vt 39.3701 -5.13883
v 0.866025 0.5 -1
vt 39.3701 5.13883
f 57/141/29 51/23/29 52/142/29 58/143/29 

vt -10.9914 10.9914
vt -34.0955 19.685
f 52/127/9 56/144/9 58/145/9

f 52/127/9 53/126/9 56/144/9

v 0.197411 0.341926 -1
vt -7.7721 13.4617
f 58/145/9 56/144/9 59/146/9

vt 0 -2.02892
v 0.197411 0.341926 -0
vt 0 2.02892
vn -0.5 -0.866025 -0
vt -39.3701 2.02892
vt -39.3701 -2.02892
f 55/147/28 60/148/30 59/149/30 56/150/28 

vt 7.7721 13.4617
f 55/139/1 57/140/1 60/151/1

v 0.102188 0.381369 -0
vt 4.02313 15.0145
f 60/151/1 57/140/1 61/152/1

v 2.70717e-016 0.394823 -0
vt 1.06581e-014 15.5442
f 61/152/1 57/140/1 62/153/1

v -0.866025 0.5 -0
vt -34.0955 19.685
f 62/153/1 57/140/1 63/154/1

v -1.0253 0.813173 -0
vt -40.3663 32.0147
f 63/154/1 57/140/1 64/155/1

v 1.0253 0.813173 -0
vt 40.3663 32.0147
f 64/155/1 57/140/1 65/156/1

vt 0 46.8354
vn 0.89134 -0.453335 -0
vt 0 33.0027
vt 39.3701 33.0027
v 1.0253 0.813173 -1
vt 39.3701 46.8354
f 65/157/31 57/158/31 58/159/31 66/160/31 

v -1.0253 0.813173 -1
vt 40.3663 32.0147
vt -40.3663 32.0147
f 58/145/9 67/161/9 66/162/9

v -0.866025 0.5 -1
vt 34.0955 19.685
f 58/145/9 68/163/9 67/161/9

v 2.70717e-016 0.394823 -1
vt -1.06581e-014 15.5442
f 58/145/9 69/164/9 68/163/9

v 0.102188 0.381369 -1
vt -4.02313 15.0145
f 58/145/9 70/165/9 69/164/9

f 58/145/9 59/146/9 70/165/9

vt 0 -2.02892
vt 0 2.02892
vn -0.258819 -0.965926 -0
vt -39.3701 2.02892
vt -39.3701 -2.02892
f 60/166/30 61/167/32 70/168/32 59/169/30 

vt 0 2.02892
vn 1.27378e-015 -1 -0
vt -39.3701 2.02892
f 61/147/32 62/170/33 69/171/33 70/150/32 

vt 0 2.02892
v -0.102188 0.381369 -0
vt 0 -2.02892
vn 0.258819 -0.965926 -0
v -0.102188 0.381369 -1
vt 39.3701 -2.02892
vt 39.3701 2.02892
f 62/172/33 71/173/34 72/174/34 69/175/33 

vt -4.02313 15.0145
f 63/154/1 71/176/1 62/153/1

v -0.197411 0.341926 -0
vt -7.7721 13.4617
f 63/154/1 73/177/1 71/176/1

v -0.279182 0.279182 -0
f 63/154/1 74/144/1 73/177/1

v -0.965926 0.258819 -0
vt -38.0286 10.1897
f 75/178/1 74/144/1 63/154/1

v -0.341926 0.197411 -0
vt -13.4617 7.7721
f 75/178/1 76/179/1 74/144/1

v -1.3 0.15 -0
vt -51.1811 5.90551
f 77/180/1 76/179/1 75/178/1

v -0.381369 0.102188 -0
vt -15.0145 4.02313
f 77/180/1 78/181/1 76/179/1

v -0.394823 3.38396e-017 -0
vt -15.5442 1.33227e-015
f 77/180/1 79/182/1 78/181/1

v -0.381369 -0.102188 -0
vt -15.0145 -4.02313
f 77/180/1 80/183/1 79/182/1

v -1.3 -0.15 -0
vt -51.1811 -5.90551
f 81/184/1 80/183/1 77/180/1

v -0.341926 -0.197411 -0
vt -13.4617 -7.7721
f 81/184/1 82/185/1 80/183/1

f 28/65/1 82/185/1 81/184/1

v -0.279182 -0.279182 -0
vt -10.9914 -10.9914
f 28/65/1 83/186/1 82/185/1

v -0.197411 -0.341926 -0
vt -7.7721 -13.4617
f 28/65/1 84/187/1 83/186/1

f 28/65/1 29/64/1 84/187/1

vt 0 2.02892
vn 0.5 0.866025 -0
vt 0 -2.02892
vn 0.258819 0.965926 -0
vt 39.3701 -2.02892
v -0.197411 -0.341926 -1
vt 39.3701 2.02892
f 84/188/35 29/189/36 26/190/36 85/191/35 

vt 0 2.02892
vt 0 -2.02892
vt 39.3701 -2.02892
vt 39.3701 2.02892
f 29/192/36 30/193/16 25/194/16 26/195/36 

vt 7.7721 -13.4617
f 26/59/9 27/60/9 85/196/9

v -0.279182 -0.279182 -1
vt 10.9914 -10.9914
f 85/196/9 27/60/9 86/197/9

v -0.341926 -0.197411 -1
vt 13.4617 -7.7721
f 86/197/9 27/60/9 87/198/9

v -1.3 -0.15 -1
vt 51.1811 -5.90551
f 87/198/9 27/60/9 88/199/9

vn -0.309717 -0.950829 -0
vt 0 46.8354
vt -39.3701 46.8354
vt -39.3701 33.0027
f 28/158/37 81/200/37 88/201/37 27/202/37 

vt 0 -5.90551
vn -1 0 -0
vt 0 5.90551
v -1.3 0.15 -1
vt -39.3701 5.90551
vt -39.3701 -5.90551
f 81/203/38 77/204/38 89/205/38 88/206/38 

vt 0 -46.8354
vn -0.309717 0.950829 -0
vt 0 -33.0027
v -0.965926 0.258819 -1
vt -39.3701 -33.0027
vt -39.3701 -46.8354
f 77/207/39 75/208/39 90/209/39 89/210/39 

vt 0 -5.13883
vn -0.92388 0.382683 -0
vt 0 5.13883
vt -39.3701 5.13883
vt -39.3701 -5.13883
f 75/211/40 63/212/40 68/213/40 90/214/40 

vt 0 33.0027
vn -0.89134 -0.453335 -0
vt 0 46.8354
vt -39.3701 46.8354
vt -39.3701 33.0027
f 63/215/41 64/216/41 67/217/41 68/218/41 

vt 0 -5.90551
vn -0.707107 0.707107 -0
v -0.813173 1.0253 -0
vt 0 5.90551
v -0.813173 1.0253 -1
vt -39.3701 5.90551
vt -39.3701 -5.90551
f 64/219/42 91/220/42 92/221/42 67/222/42 

v -0.5 0.866025 -0
vt -19.685 34.0955
vt -32.0147 40.3663
f 64/155/1 93/223/1 91/224/1

f 64/155/1 65/156/1 93/223/1

v 0.5 0.866025 -0
vt 19.685 34.0955
f 65/156/1 94/225/1 93/223/1

v 0.813173 1.0253 -0
vt 32.0147 40.3663
f 94/225/1 65/156/1 95/226/1

vt 0 5.90551
vn 0.707107 0.707107 -0
vt 0 -5.90551
vt 39.3701 -5.90551
v 0.813173 1.0253 -1
vt 39.3701 5.90551
f 95/227/43 65/228/43 66/229/43 96/230/43 

v 0.5 0.866025 -1
vt -19.685 34.0955
vt -32.0147 40.3663
f 66/162/9 97/231/9 96/232/9

v -0.5 0.866025 -1
vt 19.685 34.0955
f 97/231/9 66/162/9 98/233/9

f 66/162/9 67/161/9 98/233/9

vt 32.0147 40.3663
f 98/233/9 67/161/9 92/234/9

vt 0 46.8354
vn 0.453335 0.89134 -0
vt 0 33.0027
vt 39.3701 33.0027
vt 39.3701 46.8354
f 91/235/44 93/236/44 98/237/44 92/238/44 

vt 0 -5.13883
vn -0.382683 0.92388 -0
v -0.258819 0.965926 -0
vt 0 5.13883
v -0.258819 0.965926 -1
vt -39.3701 5.13883
vt -39.3701 -5.13883
f 93/239/45 99/240/45 100/241/45 98/242/45 

vt -10.1897 38.0286
f 94/225/1 99/243/1 93/223/1

v 0.258819 0.965926 -0
vt 10.1897 38.0286
f 99/243/1 94/225/1 101/244/1

vt 0 5.13883
vn 0.382683 0.92388 -0
vt 0 -5.13883
vt 39.3701 -5.13883
v 0.258819 0.965926 -1
vt 39.3701 5.13883
f 101/245/46 94/246/46 97/247/46 102/248/46 

vt 0 33.0027
vn -0.453335 0.89134 -0
vt 0 46.8354
vt -39.3701 46.8354
vt -39.3701 33.0027
f 94/249/47 95/250/47 96/251/47 97/252/47 

vt 10.1897 38.0286
vt -10.1897 38.0286
f 97/231/9 100/253/9 102/254/9

f 100/253/9 97/231/9 98/233/9

v -0.15 1.3 -1
vt 5.90551 51.1811
f 102/254/9 100/253/9 103/255/9

vt 0 33.0027
vn -0.950829 0.309717 -0
v -0.15 1.3 -0
vt 0 46.8354
vt -39.3701 46.8354
vt -39.3701 33.0027
f 99/256/48 104/257/48 103/258/48 100/259/48 

vt -5.90551 51.1811
f 99/243/1 101/244/1 104/260/1

v 0.15 1.3 -0
vt 5.90551 51.1811
f 104/260/1 101/244/1 105/261/1

vt 0 46.8354
vn 0.950829 0.309717 -0
vt 0 33.0027
vt 39.3701 33.0027
v 0.15 1.3 -1
vt 39.3701 46.8354
f 105/262/49 101/263/49 102/264/49 106/265/49 

vt -5.90551 51.1811
f 102/254/9 103/255/9 106/266/9

vt -5.90551 0
vn 0 1 -0
vt 5.90551 0
vt 5.90551 39.3701
vt -5.90551 39.3701
f 104/267/50 105/268/50 106/269/50 103/270/50 

v -0.279182 0.279182 -1
vt 38.0286 10.1897
f 107/139/9 90/271/9 68/163/9

v -0.341926 0.197411 -1
vt 13.4617 7.7721
f 108/272/9 90/271/9 107/139/9

vt 51.1811 5.90551
f 108/272/9 89/273/9 90/271/9

v -0.381369 0.102188 -1
vt 15.0145 4.02313
f 109/274/9 89/273/9 108/272/9

v -0.394823 3.38396e-017 -1
vt 15.5442 1.33227e-015
f 110/275/9 89/273/9 109/274/9

v -0.381369 -0.102188 -1
vt 15.0145 -4.02313
f 111/276/9 89/273/9 110/275/9

f 111/276/9 88/199/9 89/273/9

f 87/198/9 88/199/9 111/276/9

vt 0 2.02892
vn 0.965926 0.258819 -0
vt 0 -2.02892
vn 0.866025 0.5 -0
vt 39.3701 -2.02892
vt 39.3701 2.02892
f 80/277/51 82/278/52 87/279/52 111/280/51 

vt 0 2.02892
vt 0 -2.02892
vn 0.707107 0.707107 -0
vt 39.3701 -2.02892
vt 39.3701 2.02892
f 82/281/52 83/282/53 86/283/53 87/284/52 

vt 0 2.02892
vt 0 -2.02892
vt 39.3701 -2.02892
vt 39.3701 2.02892
f 83/285/53 84/286/35 85/287/35 86/288/53 

vn 1 2.79951e-017 -0
vt 39.3701 2.02892
f 79/96/54 80/189/51 111/190/51 110/289/54 

vt 0 2.02892
vn 0.965926 -0.258819 -0
vt 39.3701 -2.02892
vt 39.3701 2.02892
f 78/290/55 79/135/54 110/291/54 109/292/55 

vt 0 2.02892
vn 0.866025 -0.5 -0
vt 0 -2.02892
vt 39.3701 -2.02892
vt 39.3701 2.02892
f 76/293/56 78/294/55 109/295/55 108/296/56 

vt 0 2.02892
vn 0.707107 -0.707107 -0
vt 0 -2.02892
vt 39.3701 -2.02892
vt 39.3701 2.02892
f 74/297/57 76/298/56 108/299/56 107/300/57 

vt 0 2.02892
vn 0.5 -0.866025 -0
vt 0 -2.02892
vt 39.3701 -2.02892
v -0.197411 0.341926 -1
vt 39.3701 2.02892
f 73/301/58 74/302/57 107/303/57 112/304/58 

vt 7.7721 13.4617
f 107/139/9 68/163/9 112/305/9

vt 4.02313 15.0145
f 112/305/9 68/163/9 72/306/9

f 72/306/9 68/163/9 69/164/9

vt 0 -2.02892
vt 39.3701 -2.02892
vt 39.3701 2.02892
f 71/170/34 73/307/58 112/308/58 72/309/34 

vt -10.1897 -38.0286
f 7/310/9 12/38/9 8/34/9

vt 10.1897 -38.0286
f 7/310/9 11/311/9 12/38/9

vt 5.90551 -51.1811
f 7/310/9 10/312/9 11/311/9

vt -5.90551 -51.1811
f 10/312/9 7/310/9 9/313/9

